<svg xmlns="http://www.w3.org/2000/svg" xmlns:xlink="http://www.w3.org/1999/xlink" viewBox="0 0 1200 1200"><defs><style>.cls-1,.cls-51{fill:none;}.cls-2{isolation:isolate;}.cls-3{fill:#ebe9f0;}.cls-4{fill:#f485b7;}.cls-5{fill:#252424;}.cls-6{fill:#333;}.cls-7{mix-blend-mode:screen;fill:url(#linear-gradient);}.cls-8{clip-path:url(#clip-path);}.cls-9{fill:#e0e0e0;}.cls-10{fill:#5b5b5b;}.cls-11{fill:#1a4b98;}.cls-12{fill:#0a2854;}.cls-13{fill:#fdd24c;}.cls-14{fill:#a87c00;}.cls-15{fill:#a81e63;}.cls-16{fill:#56aba6;}.cls-17{fill:#0a665d;}.cls-18{fill:#f28c6f;}.cls-19{fill:#9b2c12;}.cls-20{fill:#fff;}.cls-21{fill:#b77234;}.cls-22{fill:#82410b;}.cls-23{fill:#02352f;}.cls-24{fill:#7c5e0a;}.cls-25{fill:#c2a35a;}.cls-26{fill:#86663e;}.cls-27{fill:#8f3b0c;}.cls-28{fill:#af5c37;}.cls-29{fill:#f3f4f1;}.cls-30{fill:#303030;}.cls-31{fill:#101115;}.cls-32{fill:#ca7d53;}.cls-33{fill:#b0b09c;}.cls-34{opacity:0.8;mix-blend-mode:soft-light;}.cls-35{fill:url(#linear-gradient-2);}.cls-36{fill:url(#linear-gradient-3);}.cls-37{fill:url(#linear-gradient-4);}.cls-38{fill:url(#linear-gradient-5);}.cls-39{fill:url(#linear-gradient-6);}.cls-40{fill:url(#linear-gradient-7);}.cls-41{fill:#d977a4;}.cls-42{fill:#e2df8a;}.cls-43{fill:#18458d;}.cls-44{fill:#e67eac;}.cls-45{fill:#e87eae;}.cls-46{fill:#f1f29d;}.cls-47{fill:#18161f;}.cls-48{fill:#262432;}.cls-49{fill:#99d9f6;}.cls-50{fill:#edf19e;}.cls-51{stroke:#fff;stroke-miterlimit:10;}</style><linearGradient id="linear-gradient" x1="686.4" y1="912.23" x2="686.4" y2="342.94" gradientUnits="userSpaceOnUse"><stop offset="0" stop-color="#c57db2"/><stop offset="1" stop-color="#56bc80"/></linearGradient><clipPath id="clip-path"><rect class="cls-1" x="515.02" y="253.74" width="342.75" height="664.92" rx="58.15"/></clipPath><linearGradient id="linear-gradient-2" x1="477.68" y1="320.72" x2="603.31" y2="739.18" gradientUnits="userSpaceOnUse"><stop offset="0" stop-color="#fef1ef"/><stop offset="1" stop-color="#fead9c"/></linearGradient><linearGradient id="linear-gradient-3" x1="533.82" y1="303.86" x2="659.45" y2="722.32" xlink:href="#linear-gradient-2"/><linearGradient id="linear-gradient-4" x1="411.81" y1="340.49" x2="537.44" y2="758.95" xlink:href="#linear-gradient-2"/><linearGradient id="linear-gradient-5" x1="457.1" y1="326.9" x2="582.72" y2="745.36" gradientTransform="translate(226.85 -169.95) rotate(26.06)" xlink:href="#linear-gradient-2"/><linearGradient id="linear-gradient-6" x1="677.13" y1="260.84" x2="802.76" y2="679.3" xlink:href="#linear-gradient-2"/><linearGradient id="linear-gradient-7" x1="795.64" y1="225.26" x2="921.26" y2="643.72" xlink:href="#linear-gradient-2"/></defs><g class="cls-2"><g id="Layer_1" data-name="Layer 1"><path class="cls-3" d="M1027.09,924.23c-73,51.6-168,33.79-252.07,38.61-60.37,3.67-119.25,19.28-178.35,32.12a537.74,537.74,0,0,1-75.77,14.7c-90.32,10.61-181-5-248.16-70q-8-7.73-15.5-16.39c-47.8-44.2-102.62-68.62-128.31-133.56-22.79-57.61-9-132.7,43.4-165.71,22-13.84,49.93-20.53,64.83-41.82,33.06-52.56-30.69-147.57-22.66-216C211,250,252,198.31,393.91,188.13s233.52,74.94,265.74,93.75C730.26,323.1,822.13,279.2,901,300.64,971.17,319.7,1020.49,396.19,1008.9,468c-9.45,58.49-53.5,112.47-41.85,170.56C998,744.53,1166.74,798.89,1027.09,924.23Z"/><path class="cls-4" d="M735,597.53,520.9,1009.66c-90.32,10.61-181-5-248.16-70L581.1,496.1Z"/><path class="cls-4" d="M926.37,608.17c-13.61,171.4-86.5,257.23-162.52,256.74L553.8,862.1c-82.68-1-145.14-87.81-137-189.82l2.3-28.94c8.1-102,83.47-177.86,165.28-165.82L792.2,507.9C867.23,520.79,933.82,514.44,926.37,608.17Z"/><rect class="cls-5" x="502.17" y="281.57" width="9.18" height="110.13" rx="4.59"/><rect class="cls-5" x="502.17" y="424.53" width="9.18" height="63.88" rx="4.59"/><rect class="cls-6" x="515.02" y="172.77" width="342.75" height="744.53" rx="61.53"/><path class="cls-5" d="M796.25,172.77a61.52,61.52,0,0,1,61.53,61.52V855.76a61.53,61.53,0,0,1-61.53,61.53H576.55A61.53,61.53,0,0,1,515,855.76V234.29a61.52,61.52,0,0,1,61.53-61.52h219.7m0-5.74H576.55a67.33,67.33,0,0,0-67.26,67.26V855.76A67.34,67.34,0,0,0,576.55,923h219.7a67.35,67.35,0,0,0,67.27-67.27V234.29A67.34,67.34,0,0,0,796.25,167Z"/><rect class="cls-7" x="515.02" y="215.14" width="342.75" height="664.92" rx="58.15"/><g class="cls-8"><rect class="cls-9" x="603.59" y="469.22" width="9.87" height="36.45"/><path class="cls-10" d="M614.33,506.53h-11.6V468.35h11.6Zm-9.88-1.72h8.15V470.08h-8.15Z"/><rect class="cls-11" x="642.4" y="469.22" width="9.87" height="36.45"/><path class="cls-12" d="M653.14,506.53h-11.6V468.35h11.6Zm-9.88-1.72h8.15V470.08h-8.15Z"/><rect class="cls-9" x="619.32" y="469.22" width="9.87" height="36.45"/><path class="cls-10" d="M630.06,506.53h-11.6V468.35h11.6Zm-9.87-1.72h8.14V470.08h-8.14Z"/><rect class="cls-9" x="629.19" y="469.22" width="6.41" height="36.45"/><path class="cls-10" d="M636.47,506.53h-8.14V468.35h8.14Zm-6.41-1.72h4.68V470.08h-4.68Z"/><rect class="cls-13" x="652.27" y="469.22" width="6.41" height="36.45"/><path class="cls-14" d="M659.55,506.53h-8.14V468.35h8.14Zm-6.41-1.72h4.68V470.08h-4.68Z"/><rect class="cls-11" x="635.61" y="481.5" width="6.41" height="24.17"/><path class="cls-12" d="M642.88,506.53h-8.14v-25.9h8.14Zm-6.41-1.72h4.68V482.36h-4.68Z"/><rect class="cls-4" x="612.91" y="481.5" width="6.41" height="24.17"/><path class="cls-15" d="M620.19,506.53h-8.14v-25.9h8.14Zm-6.41-1.72h4.68V482.36h-4.68Z"/><rect class="cls-11" x="542.48" y="418.43" width="9.87" height="36.45"/><path class="cls-12" d="M553.21,455.74H541.62V417.56h11.59ZM543.34,454h8.15V419.29h-8.15Z"/><rect class="cls-9" x="552.35" y="418.43" width="9.87" height="36.45"/><path class="cls-10" d="M563.09,455.74h-11.6V417.56h11.6ZM553.21,454h8.15V419.29h-8.15Z"/><rect class="cls-9" x="568.63" y="430.71" width="6.41" height="24.17"/><path class="cls-10" d="M575.91,455.74h-8.14v-25.9h8.14ZM569.5,454h4.68V431.57H569.5Z"/><rect class="cls-11" x="562.22" y="418.43" width="6.41" height="36.45"/><path class="cls-12" d="M569.5,455.74h-8.14V417.56h8.14ZM563.09,454h4.68V419.29h-4.68Z"/><rect class="cls-16" x="557.3" y="591.74" width="17.97" height="48.18"/><path class="cls-17" d="M577,641.65H555.57V590H577Zm-19.7-1.73h18V591.74h-18Z"/><path class="cls-17" d="M577,641.65H555.57V590H577Zm-19.7-1.73h18V591.74h-18Z"/><rect class="cls-18" x="542.26" y="591.74" width="13.31" height="48.18"/><path class="cls-19" d="M557.29,641.65H540.53V590h16.76Zm-15-1.73h13.31V591.74H542.26Z"/><rect class="cls-9" x="559.62" y="627.48" width="12.83" height="7.95"/><path class="cls-10" d="M574.18,637.15H557.9v-11.4h16.28Zm-14.55-1.72h12.82v-7.95H559.63Z"/><rect class="cls-9" x="544.21" y="593.49" width="9.25" height="3.35"/><path class="cls-10" d="M554.32,597.71h-11v-5.08h11ZM545.07,596h7.52v-1.63h-7.52Z"/><rect class="cls-20" x="544.21" y="597.52" width="9.25" height="1.68"/><rect class="cls-10" x="543.35" y="596.66" width="10.97" height="3.4"/><path class="cls-9" d="M654.46,630.83v9.09H613.64v-9.09a3.36,3.36,0,0,1,3.35-3.35h34.13A3.35,3.35,0,0,1,654.46,630.83Z"/><path class="cls-10" d="M656.19,641.65H611.92V630.83a5.09,5.09,0,0,1,5.07-5.08h34.12a5.09,5.09,0,0,1,5.08,5.08Zm-42.55-1.73h40.82v-9.09a3.35,3.35,0,0,0-3.35-3.35H617a3.36,3.36,0,0,0-3.35,3.35Z"/><polygon class="cls-10" points="644.44 629.47 644.44 634.09 616.26 634.09 616.26 631.78 619.27 631.78 619.27 629.47 644.44 629.47"/><polygon class="cls-10" points="652.63 629.47 652.63 634.09 647.41 634.09 647.41 631.78 650.15 631.78 650.15 629.47 652.63 629.47"/><polygon class="cls-9" points="650.82 611.08 649.58 625.75 647.78 625.75 650.08 611.08 650.82 611.08"/><path class="cls-10" d="M651.31,625.76l1.38-16.41h-4.08L646,625.75H621.62L619,609.35H615l1.39,16.44a5.09,5.09,0,0,0-4.42,5v10.82h44.27V630.83A5.08,5.08,0,0,0,651.31,625.76Zm-1.23-14.68h.74l-1.24,14.67h-1.8Zm-32.52,0,2.31,14.67h-1.81l-1.23-14.67Zm36.9,28.84H613.64v-9.09a3.36,3.36,0,0,1,3.35-3.35h34.18a3.34,3.34,0,0,1,3.29,3.35Z"/><polygon class="cls-9" points="619.87 625.75 618.06 625.75 616.83 611.08 617.56 611.08 619.87 625.75"/><rect class="cls-21" x="539.8" y="568.51" width="122.61" height="3.47"/><path class="cls-22" d="M664.13,573.7H538.07v-6.92H664.13ZM539.79,572H662.41V568.5H539.79Z"/><rect class="cls-21" x="539.8" y="506.53" width="122.61" height="3.47"/><path class="cls-22" d="M664.13,511.73H538.07v-6.92H664.13ZM539.79,510H662.41v-3.47H539.79Z"/><rect class="cls-21" x="539.8" y="455.74" width="122.61" height="3.47"/><path class="cls-22" d="M664.13,460.94H538.07V454H664.13Zm-124.34-1.73H662.41v-3.47H539.79Z"/><rect class="cls-21" x="539.8" y="408.71" width="122.61" height="3.47"/><path class="cls-22" d="M664.13,413.91H538.07V407H664.13Zm-124.34-1.73H662.41v-3.47H539.79Z"/><rect class="cls-21" x="539.8" y="642.13" width="122.61" height="3.47"/><path class="cls-22" d="M664.13,647.32H538.07V640.4H664.13Zm-124.34-1.73H662.41v-3.47H539.79Z"/><rect class="cls-21" x="537.15" y="383.59" width="3.56" height="288.77"/><path class="cls-22" d="M542.44,674.08h-7V381.87h7Zm-5.29-1.72h3.56V383.59h-3.56Z"/><rect class="cls-21" x="661.49" y="383.59" width="3.56" height="288.77"/><path class="cls-22" d="M666.78,674.08h-7V381.87h7Zm-5.29-1.72h3.56V383.59h-3.56Z"/><path class="cls-22" d="M659.77,381.86V674.08h7V381.86Zm5.28,290.49h-3.56V383.59h3.56Z"/><polygon class="cls-21" points="652.97 566.33 649.95 566.33 643.42 549.17 646.44 549.17 652.97 566.33"/><path class="cls-22" d="M655.47,568.05h-6.72l-7.83-20.6h6.72Zm-5.53-1.72h3l-6.52-17.16h-3Z"/><rect class="cls-21" x="618.6" y="535.41" width="30.92" height="30.92"/><path class="cls-22" d="M651.24,568.05H616.87V533.69h34.37Zm-32.64-1.72h30.91V535.41H618.6Z"/><rect class="cls-4" x="622.2" y="539.01" width="23.71" height="23.71"/><path class="cls-15" d="M647.63,564.45H620.48V537.29h27.15Zm-25.43-1.73h23.71V539H622.2Z"/><polygon class="cls-21" points="614.57 566.7 611.68 566.7 605.4 552.41 608.29 552.41 614.57 566.7"/><path class="cls-22" d="M617.21,568.42h-6.66l-7.79-17.73h6.66Zm-5.53-1.72h2.89l-6.28-14.29H605.4Z"/><rect class="cls-21" x="590.16" y="535.41" width="19.74" height="31.29"/><path class="cls-22" d="M611.63,568.42H588.44V533.69h23.19Zm-21.46-1.72h19.74V535.41H590.17Z"/><rect class="cls-4" x="593.47" y="539.07" width="13.13" height="23.98"/><path class="cls-15" d="M608.32,564.77H591.75V537.34h16.57ZM593.47,563H606.6v-24H593.47Z"/><path class="cls-17" d="M505.87,515.16c-1.83,5-7.19,19.81-8,23.11-2.38,10-3.86,20.51-5.28,30.63-2.31,16.45-4.7,33.45-11.06,49.05l-.36-.05a205.26,205.26,0,0,1,10.24-81.26l.19-.48C494.34,529.27,498.75,518.07,505.87,515.16Z"/><path class="cls-23" d="M482.64,619.86l-3.05-.46,0-.68a206.86,206.86,0,0,1,10.27-82.65v0l.2-.51c3-7.7,8.11-20.59,17.07-22.55l1.54-.33-.54,1.47c-.08.21-7.61,20.75-8.52,24.56-2.36,10-3.82,20.39-5.24,30.47-2.36,16.78-4.79,34.12-11.43,50.1Zm-1.44-2,.36.05c6.36-15.6,8.75-32.6,11.06-49.05,1.42-10.12,2.89-20.59,5.28-30.63.78-3.3,6.14-18.1,8-23.11-7.12,2.9-11.53,14.11-14.24,21l-.19.48A205.26,205.26,0,0,0,481.2,617.9Z"/><path class="cls-17" d="M477.39,616c-5.09-29.57-17.66-58.2-21.85-67.21a53.93,53.93,0,0,1,21,30.39C479.38,589.85,479.68,602.21,477.39,616Z"/><path class="cls-23" d="M478.17,578.73a55.83,55.83,0,0,0-24.31-33.17l-2.65-1.72,1.4,2.82c.19.37,18.33,37,23.73,73.73l.11.73h1.74l.14-.69C481.46,604.73,481.4,590.7,478.17,578.73Zm-1.67.45c2.88,10.67,3.18,23,.89,36.82-5.09-29.57-17.66-58.2-21.85-67.21A53.93,53.93,0,0,1,476.5,579.18Z"/><path class="cls-17" d="M472.66,618.51c-3.18-1-4.14-4.85-5.08-8.55a36.36,36.36,0,0,0-1-3.55c-1.1-4-3.48-9.93-7.09-17.57,4.66,4,14.38,14,15.24,20.42v.08C475.08,612.72,475.49,616.53,472.66,618.51Z"/><path class="cls-23" d="M472.93,620.37l-.35-.09c-4.45-1.11-5.68-6-6.67-9.9a33.06,33.06,0,0,0-1-3.41l0-.07c-1.18-4.33-3.9-10.95-8.11-19.68l-.22-.46a1,1,0,0,1,.1-1.08.92.92,0,0,1,1-.27c1.18.35,5.84,4.58,9.6,8.71s8.52,10.2,9.15,14.93v.1c.41,3.82.91,8.56-3.2,11Zm-6.36-14c.39,1.07.69,2.27,1,3.55.93,3.7,1.89,7.52,5.06,8.55,2.84-2,2.43-5.79,2.07-9.17v-.08c-.85-6.41-10.57-16.37-15.23-20.43C463.09,596.48,465.47,602.39,466.57,606.41Z"/><path class="cls-17" d="M506,577.76c-4,8.17-13.51,28.1-17.54,40.12l-.85.07c-2.2-8.14,1.38-17.08,4.82-23.21A70.74,70.74,0,0,1,506,577.76Z"/><path class="cls-23" d="M508,573.79c-11.72,9-26.78,29.66-21.89,45.34l.2.66,3.38-.29.17-.54c5-15.08,19.29-43.81,19.44-44.1L511,571.5ZM487.56,618c-2.2-8.14,1.38-17.08,4.82-23.21a70.74,70.74,0,0,1,13.57-17c-4,8.17-13.51,28.1-17.54,40.12Z"/><path class="cls-16" d="M500.06,612.69l-4.23,59.07a.65.65,0,0,1-.65.59H468.59a.65.65,0,0,1-.65-.59l-4.23-59.07Z"/><path class="cls-17" d="M495.18,674.08H468.59a2.39,2.39,0,0,1-2.37-2.2L461.86,611h40.05l-4.36,60.91A2.39,2.39,0,0,1,495.18,674.08Zm-31.47-61.39,4.23,59.06a.65.65,0,0,0,.65.61h26.59a.66.66,0,0,0,.65-.61l4.23-59.06Z"/><path class="cls-13" d="M507.55,405.11a27,27,0,1,1-27-27A27,27,0,0,1,507.55,405.11Z"/><path class="cls-24" d="M480.58,433.8a28.69,28.69,0,1,1,28.69-28.69A28.73,28.73,0,0,1,480.58,433.8Zm0-55.66a27,27,0,1,0,27,27A27,27,0,0,0,480.58,378.14Z"/><polygon class="cls-24" points="493.29 405.97 479.72 405.97 479.72 384.16 481.44 384.16 481.44 404.25 493.29 404.25 493.29 405.97"/><rect class="cls-25" x="892.39" y="405.23" width="2.81" height="264.35"/><path class="cls-26" d="M896.91,671.22h-6.22V403.52h6.22Zm-4.52-1.65h2.81V405.23h-2.81Z"/><path class="cls-25" d="M903.38,663.81v3.76H884.21v-3.76a2.74,2.74,0,0,1,2.74-2.73h13.7A2.73,2.73,0,0,1,903.38,663.81Z"/><path class="cls-27" d="M912.35,470.71v.87h-1.56v-.88a1.61,1.61,0,0,1,.77-.2A1.51,1.51,0,0,1,912.35,470.71Z"/><path class="cls-28" d="M913.18,472.11a1.62,1.62,0,0,1-3.23,0,1.62,1.62,0,0,1,1.61-1.61,1.51,1.51,0,0,1,.79.21A1.61,1.61,0,0,1,913.18,472.11Z"/><path class="cls-27" d="M912.35,469V449h-1.56v20a3.16,3.16,0,1,0,1.56,0Zm-.79,4.68a1.61,1.61,0,0,1,0-3.22,1.51,1.51,0,0,1,.79.21,1.6,1.6,0,0,1-.79,3Z"/><path class="cls-29" d="M925,451.86h.14a4,4,0,0,0,3.94-4.69c0-.09-.1-.4-.23-.91-2.17-8.24-13.21-49.91-17.89-60.63a8.67,8.67,0,0,0-1.14-2.12h-32.1a8.28,8.28,0,0,0-1.14,2.12c-4.74,10.84-15.74,52.41-17.89,60.63-.14.51-.22.82-.24.91a3.87,3.87,0,0,0,.06,1.66,4,4,0,0,0,3.88,3h.15c4.86.93,9.83,1.65,14.78,2.14,5.3.52,10.73.79,16.13.79,5.24,0,10.57-.25,15.84-.75l2.17-.21C916,453.35,920.54,452.69,925,451.86Z"/><path class="cls-29" d="M925,451.86a4.11,4.11,0,0,0,3.51-1.85,200.8,200.8,0,0,1-69.47,0c1.55,2.35,4.75,1.82,7.16,2.49A168.82,168.82,0,0,0,925,451.86Z"/><path class="cls-25" d="M924.92,671.41v1.89H862.68v-1.89a2.3,2.3,0,0,1,2.29-2.29h57.66A2.3,2.3,0,0,1,924.92,671.41Z"/><path class="cls-26" d="M922.63,667.57H905.09v-3.76a4.45,4.45,0,0,0-4.44-4.44H887a4.45,4.45,0,0,0-4.44,4.44v3.76H865a3.85,3.85,0,0,0-3.84,3.84v3.44h65.34v-3.44A3.85,3.85,0,0,0,922.63,667.57Zm-38.42-3.76a2.74,2.74,0,0,1,2.74-2.73h13.7a2.73,2.73,0,0,1,2.73,2.73v3.76H884.21Zm40.71,9.49H862.68v-1.89a2.3,2.3,0,0,1,2.29-2.29h57.66a2.3,2.3,0,0,1,2.29,2.29Z"/><path class="cls-30" d="M845.89,670.4a2,2,0,0,1-3.89.44l-5.88-26.24,3.84-.86L845.84,670A2,2,0,0,1,845.89,670.4Z"/><path class="cls-31" d="M843.92,674.08a3.67,3.67,0,0,1-3.58-2.87l-6.25-27.9,7.16-1.6,6.25,27.9a3.67,3.67,0,0,1-2.78,4.38h0A3.7,3.7,0,0,1,843.92,674.08Zm-7.8-29.48L842,670.84a2,2,0,0,0,2.35,1.49h0a2,2,0,0,0,1.49-2.35L840,643.74Z"/><path class="cls-10" d="M790.26,670.41a2,2,0,0,1-3.88.43L780.5,644.6l3.83-.86L790.21,670A1.58,1.58,0,0,1,790.26,670.41Z"/><path class="cls-30" d="M769.54,644.6l-5.88,26.24a2,2,0,1,1-3.83-.86l5.88-26.24Z"/><path class="cls-31" d="M761.74,674.08a3.7,3.7,0,0,1-.8-.09h0a3.68,3.68,0,0,1-2.78-4.38l6.26-27.9,7.16,1.6-6.26,27.9A3.67,3.67,0,0,1,761.74,674.08Zm-.43-1.75a2,2,0,0,0,2.35-1.49l5.88-26.24-3.83-.86L759.83,670a2,2,0,0,0,1.48,2.35Z"/><path class="cls-10" d="M709,644.6l-5.88,26.24a2,2,0,1,1-3.84-.86l5.88-26.24Z"/><path class="cls-10" d="M784.45,642.79v3.35H704.11v-3.58a9,9,0,0,0,2,.23Z"/><path class="cls-10" d="M840.07,642.63v3.51H786.15v-3.35h52.18A9.08,9.08,0,0,0,840.07,642.63Z"/><path class="cls-31" d="M841.78,642.16a10.78,10.78,0,0,1-1.71.47v3.51H786.15v-3.35h-1.7v3.35H704.11v-3.58a8.33,8.33,0,0,1-1.71-.55l.07,5.84-4.88,21.76a3.67,3.67,0,1,0,7.16,1.6L710,647.85h69.5l5.24,23.36a3.67,3.67,0,0,0,7.16-1.6L787,647.85h54.78ZM703.09,670.84a2,2,0,1,1-3.84-.86l5-22.13h4Zm87.12-.86a1.58,1.58,0,0,1,0,.43,2,2,0,0,1-3.88.43l-5.15-23h4Z"/><rect class="cls-31" x="784.45" y="646.14" width="1.7" height="0.85"/><path class="cls-28" d="M848.16,519.15a14.44,14.44,0,0,0-6.49,7.73l-14.12,45.94a24.1,24.1,0,0,1-12.24,13.43L801.18,593a28.83,28.83,0,0,0-16,20.82l-.51,3a15.67,15.67,0,0,0-3-.75c-2.35-.41-5.72-.76-10-1.06-3.07-.2-6.55-.38-10.32-.51a693.65,693.65,0,0,0,14.52-95.4Z"/><path class="cls-27" d="M784.29,619.28h.16v-.93Z"/><path class="cls-32" d="M846.38,618.87V633a8.06,8.06,0,0,1-8,8H786.15V619c4.62-1.37,17.33-2.27,32.2-2.27C834.37,616.77,844.3,617.79,846.38,618.87Z"/><path class="cls-27" d="M784.45,617.82v.53l.09-.56Z"/><path class="cls-32" d="M784.45,618.63v22.45H706.13a7.64,7.64,0,0,1-7.64-7.63V618.63c1.83-1.33,17.28-2.7,43-2.7S782.62,617.3,784.45,618.63Z"/><path class="cls-32" d="M855.88,520.87a702.17,702.17,0,0,1-9.37,96.24c-5.36-1.89-22.57-2.05-28.16-2.05-11.2,0-25.73.58-32,2.16l.52-3.11a27.09,27.09,0,0,1,15-19.56L816,587.79a25.94,25.94,0,0,0,13.13-14.42l14.11-45.93c.05-.16.11-.31.17-.46s.24-.56.37-.83.3-.59.46-.87.17-.26.25-.4a12.8,12.8,0,0,1,2.22-2.64l.23-.2a12.23,12.23,0,0,1,3-1.91c.13-.07.27-.12.41-.18l.42-.16.43-.14.45-.13.41-.1.44-.09a8.46,8.46,0,0,1,.86-.12h.06l.43,0,.44,0a1.59,1.59,0,0,1,1.53,1.72Z"/><path class="cls-32" d="M728.39,587.79l-14.13,6.76a27.12,27.12,0,0,0-15,19.56l-.42,2.57a21.14,21.14,0,0,1,2.46-.56c2.35-.41,5.72-.76,10-1.06,8-.53,18.69-.83,30.19-.83,6.4,0,12.56.09,18.14.26.09-.41.19-.82.28-1.23l.72-3.24c.23-1,.45-2,.67-3s.4-1.91.61-2.86.44-2.1.65-3.16c.43-2.1.86-4.21,1.27-6.34l.33-1.74q.54-2.83,1.06-5.7l.45-2.52c.29-1.63.58-3.27.85-4.91.14-.8.28-1.6.41-2.4.36-2.2.72-4.42,1.07-6.64l.09-.57c.38-2.47.75-5,1.11-7.45.09-.6.17-1.19.26-1.79q.42-3,.82-6l.24-1.79c.32-2.5.64-5,.94-7.52v0q.49-4.08.94-8.19c0-.22,0-.43.07-.64q.39-3.65.75-7.32l.21-2.16q.39-4,.74-8.1h-1.59a12.23,12.23,0,0,0-11.19,8.3l0,0L741.5,573.4A25.85,25.85,0,0,1,728.39,587.79Z"/><path class="cls-27" d="M856.83,518.45a3.23,3.23,0,0,0-2.36-1H772.56a14,14,0,0,0-12.79,9.41l-19.84,45.88,0,.06a24.14,24.14,0,0,1-12.26,13.45L713.53,593a28.87,28.87,0,0,0-16,20.82l-.71,4.27,0,.18v0a.34.34,0,0,0,0,.1v15A9.34,9.34,0,0,0,702.4,642a8.33,8.33,0,0,0,1.71.55,9,9,0,0,0,2,.23h132.2a9.08,9.08,0,0,0,1.74-.16,10.78,10.78,0,0,0,1.71-.47,9.77,9.77,0,0,0,6.31-9.12V618.48c5.19-29.61,8.44-62.46,9.66-97.64A3.21,3.21,0,0,0,856.83,518.45ZM699.22,614.11a27.12,27.12,0,0,1,15-19.56l14.13-6.76A25.85,25.85,0,0,0,741.5,573.4l19.85-45.9,0,0a12.23,12.23,0,0,1,11.19-8.3h1.59q-.78,9.11-1.75,18c-2.44,22.44-5.79,44.08-10,64.65q-1.32,6.39-2.76,12.65c-5.57-.17-11.73-.26-18.14-.26-11.5,0-22.22.3-30.19.83-4.3.3-7.67.65-10,1.06a21.14,21.14,0,0,0-2.46.56Zm85.23,27H706.13a7.46,7.46,0,0,1-2-.27,8,8,0,0,1-1.71-.7,7.65,7.65,0,0,1-3.91-6.66V618.63a2.24,2.24,0,0,1,.58-.28,21.09,21.09,0,0,1,3.81-.78c6.53-.91,19.82-1.64,38.59-1.64,6.62,0,12.55.09,17.75.25l1.74.05c8.67.3,15.14.79,19.1,1.34a13.27,13.27,0,0,1,4.39,1.06Zm.24-24.21a15.67,15.67,0,0,0-3-.75c-2.35-.41-5.72-.76-10-1.06-3.07-.2-6.55-.38-10.32-.51a693.65,693.65,0,0,0,14.52-95.4h72.3a14.44,14.44,0,0,0-6.49,7.73l-14.12,45.94a24.1,24.1,0,0,1-12.24,13.43L801.18,593a28.83,28.83,0,0,0-16,20.82ZM846.38,633a8.05,8.05,0,0,1-4.6,7.27,8.2,8.2,0,0,1-1.71.58,7.67,7.67,0,0,1-1.74.19H786.15V619a56.25,56.25,0,0,1,9.9-1.47c6-.51,13.79-.8,22.3-.8,9,0,16.15.32,21,.8,3.74.37,6.13.83,7,1.3Zm.13-15.93c-5.36-1.89-22.57-2.05-28.16-2.05-11.2,0-25.73.58-32,2.16l.52-3.11a27.09,27.09,0,0,1,15-19.56L816,587.79a25.94,25.94,0,0,0,13.13-14.42l14.11-45.93c.05-.16.11-.31.17-.46s.24-.56.37-.83a12.75,12.75,0,0,1,2.5-3.5l.26-.25.25-.22L847,522a11.61,11.61,0,0,1,7.37-2.89,1.59,1.59,0,0,1,1.53,1.72A702.17,702.17,0,0,1,846.51,617.11Z"/><path class="cls-29" d="M877.18,384.4l-.06.13h33.36a5.65,5.65,0,0,0-.63-1h-32.1A4.9,4.9,0,0,0,877.18,384.4Z"/><path class="cls-33" d="M930.73,448.05a6,6,0,0,0-.09-1.19v-.05s-.09-.33-.25-.95c-3-11.24-12.71-47.87-17.51-59.78h0l-.4-.89a1.67,1.67,0,0,0-.08-.2c-.18-.41-.35-.78-.51-1.1-.71-1.42-1.24-1.95-1.88-1.95H877.57a1.52,1.52,0,0,0-1.19.78,13.37,13.37,0,0,0-1.2,2.27h0l-.47,1.08h0c-5,12.38-15.42,51.79-17.52,59.78-.16.62-.24.95-.24.95l0,.05a5.21,5.21,0,0,0-.08,1.18l.16,1.15h0a5.53,5.53,0,0,0,1.94,3,5.73,5.73,0,0,0,1.57.87,5.17,5.17,0,0,0,.88.23,4.73,4.73,0,0,0,.93.09c4.88.94,9.88,1.66,14.85,2.15,5.35.53,10.83.79,16.28.79,5.29,0,10.66-.25,16-.75.73-.06,1.47-.14,2.19-.22,4.52-.48,9.09-1.14,13.6-2h.09a5.53,5.53,0,0,0,5.09-3.76c.05-.14.1-.29.14-.45h0ZM877.18,384.4l.05-.09.12-.22,0-.08.07-.13,0-.05.09-.14v0l.07-.09h0a.22.22,0,0,1,.06-.07h32.1a3,3,0,0,1,.38.56h0l.15.27v0l.09.16H877.12ZM928.53,450a.18.18,0,0,0,0,.07,4,4,0,0,1-.32.4l-.12.13c-.1.11-.21.2-.32.3l-.13.1a5.25,5.25,0,0,1-.49.33l0,0-.5.22-.17,0a3,3,0,0,1-.43.11l-.18,0a4.07,4.07,0,0,1-.61.05H925c-4.49.83-9,1.49-13.54,2l-2.17.21q-2,.19-4,.33c-4,.28-8,.42-11.88.42-2.7,0-5.41-.07-8.1-.2s-5.38-.33-8-.59c-3.71-.37-7.43-.86-11.12-1.48l-3.66-.66h-.15a4.18,4.18,0,0,1-.61-.05l-.17,0a3,3,0,0,1-.43-.11l-.17,0a4.09,4.09,0,0,1-.52-.23h0c-.17-.1-.34-.21-.49-.32l-.13-.11a2.27,2.27,0,0,1-.32-.3,1.36,1.36,0,0,1-.12-.12,3,3,0,0,1-.35-.45l0,0h0a200.8,200.8,0,0,0,69.47,0Zm.61-1.7a199.34,199.34,0,0,1-70.69,0,4.18,4.18,0,0,1,0-1.17c0-.09.1-.4.24-.91,2.12-8.11,12.85-48.65,17.69-60.17h34.78c4.79,11.42,15.55,52.05,17.69,60.17.13.51.21.82.23.91A3.83,3.83,0,0,1,929.14,448.33Z"/><g class="cls-34"><rect class="cls-35" x="557.3" y="591.74" width="17.97" height="48.18"/><path class="cls-36" d="M666.78,381.86h-7V407H542.44V381.87h-7V674.08h7V647.32H659.76v26.76h7V381.87h0ZM540.71,672.36h-3.56V383.59h0V672.35h3.56Zm1.73-80.62h0Zm0,48.18h0Zm117.32,2.21h0Zm-102.47-2.21V591.74h18v48.18Zm93.83-12.44h0Zm.36,0h.15Zm.34,0h0l.06,0h0Zm.32.09h.07Zm7.62,12.76h-3.57v-9.57a5,5,0,0,0-.37-1.9v0a3.78,3.78,0,0,0-.17-.35.36.36,0,0,1,0-.09l-.18-.3-.07-.12c-.06-.08-.12-.17-.19-.25l-.1-.14-.19-.22-.13-.14a1.8,1.8,0,0,0-.2-.19l-.15-.14-.22-.17-.16-.12-.24-.15-.17-.11-.25-.13-.18-.08-.28-.11-.18-.07-.29-.08-.18,0-.32-.06-.16,0-.34,0h-.11l1.38-16.41h-4.08L646,625.75H621.62L619,609.35H615l1.39,16.44-.2,0-.22,0a2,2,0,0,0-.23.06l-.24.06-.17.06a5.57,5.57,0,0,0-1,.48l-.1.06-.25.18-.13.1-.22.19-.13.12-.19.2-.13.14-.17.21-.12.16c-.05.07-.1.14-.14.21l-.11.19a1.13,1.13,0,0,0-.12.21l-.11.21-.09.22-.09.24c0,.07-.05.14-.07.21s0,.18-.07.27,0,.13,0,.19a1.88,1.88,0,0,0,0,.33l0,.16c0,.16,0,.33,0,.5v9.57H577V590H542.44V573.7H659.76Zm0-71.89h0Zm-49.85-5.85Zm0-10.86V535.41h0V551.8Zm1.73,14.79h0l0,.11h0Zm7-.26Zm30.91-9.09Zm0-4.86v-17h0v17Zm0,12.81h0Zm1.73-3.41h0l1.73,4.55h0Zm8.52,5H655l-3.74-9.86V533.69H616.87v33.09h-.38l-4.86-11.06v-22H588.44v33.09h-46v-55H659.76Zm0-60.25h0Zm0-1.72h-.21V468.35h-18v12.28h-5.07V468.35h-18v12.28h-4.13V468.35h-11.6v36.46H542.44V460.94H659.76Zm0-45.6h0Zm0-5.19H575.91V429.84H569.5V417.56H542.44v-3.65H659.76Zm0-41.84h0Z"/><path class="cls-37" d="M511,571.5l-3,2.29a69.62,69.62,0,0,0-18,21.69c1.84-8.75,3.1-17.62,4.32-26.34,1.42-10.08,2.88-20.51,5.24-30.47.91-3.81,8.44-24.35,8.52-24.56l.54-1.47-1.54.33c-9,2-14,14.85-17.07,22.55l-.2.51v0a211.57,211.57,0,0,0-10.23,49.24q-.56-3.39-1.41-6.58a55.83,55.83,0,0,0-24.31-33.17l-2.65-1.72,1.4,2.82a304.57,304.57,0,0,1,19.6,53.5,66.28,66.28,0,0,0-4.93-6c-3.76-4.13-8.42-8.36-9.6-8.71a.94.94,0,0,0-1,.27,1,1,0,0,0-.09,1.08l.22.46c4.21,8.73,6.93,15.35,8.11,19.68l0,.07a33.06,33.06,0,0,1,1,3.41l.15.59h-4.2l4.36,60.91a2.39,2.39,0,0,0,2.37,2.2h26.59a2.39,2.39,0,0,0,2.37-2.2L501.91,611h-9.09c6.17-15.45,16.36-35.87,16.48-36.11Z"/><circle class="cls-38" cx="480.58" cy="405.11" r="28.69" transform="translate(-129.12 252.34) rotate(-26.06)"/><path class="cls-39" d="M856.83,518.45a3.23,3.23,0,0,0-2.36-1H772.56a14,14,0,0,0-12.79,9.41l-19.84,45.88,0,.06a24.14,24.14,0,0,1-12.26,13.45L713.53,593a28.87,28.87,0,0,0-16,20.82l-.71,4.27,0,.18v0a.34.34,0,0,0,0,.1v15A9.34,9.34,0,0,0,702.4,642l.07,5.84-4.88,21.76a3.67,3.67,0,1,0,7.16,1.6L710,647.85H763l-4.88,21.76a3.68,3.68,0,0,0,2.78,4.38h0a3.66,3.66,0,0,0,4.38-2.78l5.24-23.36h8.92l5.24,23.36a3.67,3.67,0,0,0,7.16-1.6L787,647.85h48.1l5.24,23.36a3.66,3.66,0,0,0,4.38,2.78h0a3.67,3.67,0,0,0,2.78-4.38l-5.72-25.55v-1.9a9.77,9.77,0,0,0,6.31-9.12V618.48c5.19-29.61,8.44-62.46,9.66-97.64A3.21,3.21,0,0,0,856.83,518.45Z"/><path class="cls-40" d="M930.64,446.86v-.05s-.09-.33-.25-.95c-3-11.24-12.71-47.87-17.51-59.78h0l-.4-.89a1.67,1.67,0,0,0-.08-.2c-.18-.41-.35-.78-.51-1.1-.71-1.42-1.24-1.95-1.88-1.95H877.57a1.52,1.52,0,0,0-1.19.78,13.37,13.37,0,0,0-1.2,2.27h0l-.47,1.08h0c-5,12.38-15.42,51.79-17.52,59.78-.16.62-.24.95-.24.95l0,.05a5.21,5.21,0,0,0-.08,1.18l.16,1.15h0a5.53,5.53,0,0,0,1.94,3,5.73,5.73,0,0,0,1.57.87,5.17,5.17,0,0,0,.88.23,4.73,4.73,0,0,0,.93.09c4.88.94,9.88,1.66,14.85,2.15,4.44.44,9,.68,13.49.76V659.37H887a4.45,4.45,0,0,0-4.44,4.44v3.76H865a3.85,3.85,0,0,0-3.84,3.84v3.44h65.34v-3.44a3.85,3.85,0,0,0-3.84-3.84H905.09v-3.76a4.45,4.45,0,0,0-4.44-4.44h-3.74V456.3c4.17-.08,8.38-.32,12.55-.71l1.33-.13V469a3.16,3.16,0,1,0,1.56,0V455.29c4.29-.47,8.62-1.1,12.9-1.89h.09a5.53,5.53,0,0,0,5.09-3.76c.05-.14.1-.29.14-.45h0l.16-1.14A6,6,0,0,0,930.64,446.86Z"/></g><path class="cls-41" d="M585.85,704.7l7,6.43,64.44-65.88c10.85-11.82-4.55-26-15.4-14.13Z"/><path class="cls-41" d="M575.4,710.54h0a5.08,5.08,0,0,0,5,4.81l7.29.14a4.9,4.9,0,0,0,5-5.16l0-.8a5.07,5.07,0,0,0-5.5-4.79l-7.25.65A4.92,4.92,0,0,0,575.4,710.54Z"/><path class="cls-42" d="M631.37,640.32,645,625.18l16.28,16.89-12,13.75c-.54.55-1.7.29-2.59-.59Z"/><rect class="cls-43" x="597.83" y="648.18" width="33.58" height="36.1" rx="12.26" transform="translate(626.16 1572.58) rotate(-138.04)"/><path class="cls-4" d="M636,629.1c4.44,3.9,9,7.69,13.52,11.47-7.16,6.89-14.22,13.89-21.37,20.8Q623.07,656.65,618,652,627.1,640.61,636,629.1Z"/><path class="cls-44" d="M638.47,657.51l-2.28-2c-5.13-4.61-18.26-8.33-23.22-2.8l-4.66,5.18c-5,5.53-4.81,13.75.32,18.36l2.28,2c5.13,4.62,13.31,3.88,18.27-1.64l4.66-5.19C638.8,665.9,643.6,662.13,638.47,657.51Z"/><path class="cls-43" d="M616.36,669.63l9.86,5.08a6.52,6.52,0,0,1,2.43,9.12h0a7.06,7.06,0,0,1-9.24,3.11l-9.87-5.07a6.54,6.54,0,0,1-2.43-9.13h0A7.07,7.07,0,0,1,616.36,669.63Z"/><path class="cls-11" d="M610.9,661.53l1.69,3a7.14,7.14,0,0,1-2.65,9.43h0a6.45,6.45,0,0,1-9.18-2L599.07,669a7.13,7.13,0,0,1,2.64-9.43h0A6.47,6.47,0,0,1,610.9,661.53Z"/><path class="cls-45" d="M614.71,656.93c2.57-2.84,2.17-6.48-.44-8.48a6.82,6.82,0,0,0-9.19,1c-2.57,2.83-2.16,6.48.45,8.49A6.8,6.8,0,0,0,614.71,656.93Z"/><polygon class="cls-4" points="682.09 561.51 698.24 596.07 653.76 654.28 624.66 629.1 682.09 561.51"/><polygon class="cls-46" points="681.43 558.09 692.35 606.29 653.39 657.01 621.34 629.28 681.43 558.09"/><polygon class="cls-44" points="799.5 705.54 790.9 707.27 761.32 668.92 686.65 584.23 698.28 572.25 770.86 661.96 799.5 705.54"/><path class="cls-44" d="M766.65,713.85l32.91-2.59-.06-5.72-10.24.74S766.61,710.07,766.65,713.85Z"/><path class="cls-47" d="M686.47,551.24l-5.72,6.28c-.55.56,11.76,50.4,11.76,50.4l75.56,72.25L780,670l-56.67-96.07L688.43,551.1A1.38,1.38,0,0,0,686.47,551.24Z"/><polygon class="cls-4" points="810.16 705.54 801.68 707.27 769.32 668.92 689.08 584.23 699.83 572.25 778.36 661.96 810.16 705.54"/><path class="cls-4" d="M777.91,713.85l32.87-.75-.62-7.56-10.19.74S777.6,710.07,777.91,713.85Z"/><path class="cls-48" d="M686.51,551.24l-5.27,6.28c-.51.56,15.4,50.4,15.4,50.4l80.25,72.25L788.11,670,725,573.94,688.46,551.1A1.37,1.37,0,0,0,686.51,551.24Z"/><path class="cls-4" d="M576.44,705.09l7,6.44,64.44-65.88c10.86-11.83-4.54-26-15.4-14.14Z"/><path class="cls-4" d="M566,710.93h0a5.07,5.07,0,0,0,5,4.81l7.29.15a4.92,4.92,0,0,0,5-5.17l0-.79a5.08,5.08,0,0,0-5.51-4.8l-7.25.66A4.89,4.89,0,0,0,566,710.93Z"/><path class="cls-46" d="M626.51,636l14.88-14.1c3-2.52,18,15.53,15,18L643.2,652.79c-.58.51-1.72.16-2.54-.78Z"/><rect class="cls-49" x="515.08" y="713.1" width="346.47" height="6.43"/></g><path class="cls-50" d="M697.35,197.74H632.52a3,3,0,1,1,0-6h64.83a3,3,0,0,1,0,6Z"/><path class="cls-50" d="M732,197.74H715.87a3,3,0,0,1,0-6H732a3,3,0,0,1,0,6Z"/><rect class="cls-20" x="533.4" y="266.7" width="96.36" height="3.07"/><rect class="cls-20" x="638.94" y="266.7" width="96.36" height="3.07"/><rect class="cls-20" x="744.47" y="266.7" width="96.36" height="3.07"/><circle class="cls-4" cx="559.95" cy="313.5" r="24.76"/><rect class="cls-20" x="596.67" y="293.86" width="97.1" height="15.37"/><rect class="cls-20" x="596.67" y="317.77" width="50.98" height="15.37"/><rect class="cls-51" x="532.4" y="803.21" width="274.46" height="34.73" rx="17.36"/><path class="cls-20" d="M841.7,806.87h0l0,0h-.11l-25.92,15.26a.11.11,0,0,0-.06.11.11.11,0,0,0,.1.09l6.88,1.11,3.48,9h0l0,0h0l0,0h.05l0,0h0v0h0l4.1-7.26,4.27,1a.11.11,0,0,0,.13-.08l7-19A.09.09,0,0,0,841.7,806.87ZM816,822.14l24.58-14.47-18,15.53Zm10.06,9.75-3.3-8.54,17.87-15.42L827,824.23h0v0h0Zm.24-.09.91-7.36,2.88.64Zm8.25-5.95-4.26-1-3-.66,14-16.72Z"/><path class="cls-20" d="M826.08,832.44h0Z"/><polygon class="cls-20" points="826.17 832.45 826.17 832.45 826.17 832.45 826.17 832.45"/><polygon class="cls-20" points="827.02 824.27 827.02 824.27 827.02 824.28 827.02 824.27"/><path class="cls-4" d="M547.84,396.51c7.26,53.23-25.44,124.65-37,239.61-6.23,61.71-39.17,108.06-70.42,97.82L431.52,731C400.27,720.79,392,662,413.5,602l54.59-152.28C488.42,394.85,540.59,343.28,547.84,396.51Z"/><rect class="cls-1" width="1200" height="1200"/></g></g></svg>